HIERARCHY
ROOT Hips
{
	OFFSET 0.00 0.00 0.00
	CHANNELS 6 Xposition Yposition Zposition Xrotation Yrotation Zrotation
	JOINT Spine
	{
		OFFSET 0.00000 5.19526 0.00000
		CHANNELS 3 Xrotation Yrotation Zrotation
		JOINT Head
		{
			OFFSET 0.00000 15.65388 0.00000
			CHANNELS 3 Xrotation Yrotation Zrotation
			End Site
			{
				OFFSET 0.00000 4.52755 0.00000
			}
		}
		JOINT LeftShoulder
		{
			OFFSET 0.00000 10.32977 0.00000
			CHANNELS 3 Xrotation Yrotation Zrotation
			JOINT LeftArm
			{
				OFFSET 6.99601 0.00000 0.00000
				CHANNELS 3 Xrotation Yrotation Zrotation
				JOINT LeftForeArm
				{
					OFFSET 10.20930 0.00000 0.00000
					CHANNELS 3 Yrotation Zrotation Xrotation
					JOINT LeftHand
					{
						OFFSET 8.56316 0.00000 0.00000
						CHANNELS 3 Xrotation Yrotation Zrotation
						JOINT LeftHandThumb1
						{
							OFFSET 0.00000 0.00000 0.00000
							CHANNELS 3 Xrotation Zrotation Yrotation
							End Site
							{
								OFFSET 0.00000 0.00000 3.93700
							}
						}
						End Site
						{
							OFFSET 3.93700 0.00000 0.00000
						}
					}
				}
			}
		}
		JOINT RightShoulder
		{
			OFFSET 0.00000 10.32977 0.00000
			CHANNELS 3 Xrotation Yrotation Zrotation
			JOINT RightArm
			{
				OFFSET -6.99601 0.00000 0.00000
				CHANNELS 3 Xrotation Yrotation Zrotation
				JOINT RightForeArm
				{
					OFFSET -10.20930 0.00000 0.00000
					CHANNELS 3 Yrotation Zrotation Xrotation
					JOINT RightHand
					{
						OFFSET -8.56316 0.00000 0.00000
						CHANNELS 3 Xrotation Yrotation Zrotation
						JOINT RightHandThumb1
						{
							OFFSET 0.00000 0.00000 0.00000
							CHANNELS 3 Xrotation Zrotation Yrotation
							End Site
							{
								OFFSET 0.00000 0.00000 3.93700
							}
						}
						End Site
						{
							OFFSET -3.93700 0.00000 0.00000
						}
					}
				}
			}
		}
	}
	JOINT LeftUpLeg
	{
		OFFSET 3.35136 0.00000 0.00000
		CHANNELS 3 Xrotation Yrotation Zrotation
		JOINT LeftLeg
		{
			OFFSET 0.00000 -16.34683 0.00000
			CHANNELS 3 Xrotation Yrotation Zrotation
			JOINT LeftFoot
			{
				OFFSET 0.00000 -13.95979 0.00000
				CHANNELS 3 Xrotation Yrotation Zrotation
				JOINT LeftToeBase
				{
					OFFSET 0.00000 -1.33694 4.98954
					CHANNELS 3 Xrotation Yrotation Zrotation
					End Site
					{
						OFFSET 0.00000 0.00000 2.95275
					}
				}
			}
		}
	}
	JOINT RightUpLeg
	{
		OFFSET -3.35136 0.00000 0.00000
		CHANNELS 3 Xrotation Yrotation Zrotation
		JOINT RightLeg
		{
			OFFSET 0.00000 -16.34683 0.00000
			CHANNELS 3 Xrotation Yrotation Zrotation
			JOINT RightFoot
			{
				OFFSET 0.00000 -13.95979 0.00000
				CHANNELS 3 Xrotation Yrotation Zrotation
				JOINT RightToeBase
				{
					OFFSET 0.00000 -1.33694 4.98954
					CHANNELS 3 Xrotation Yrotation Zrotation
					End Site
					{
						OFFSET 0.00000 0.00000 2.95275
					}
				}
			}
		}
	}
}
MOTION
Frames: 20
Frame Time: 0.008333
 -1.4679 31.9257 -5.8155 6.6413 25.3051 2.2688 -7.8386 -2.3356 -4.1403 1.9676 -15.6798 -1.4665 13.0863 11.9059 7.2303 -18.8298 -45.9372 -89.7706 -12.0178 -0.0000 -2.8875 1.5121 11.2102 -7.7325 33.1476 -0.0000 26.2537 -31.6317 23.2077 -41.1720 -87.5414 -31.8495 43.0544 114.0547 0.0000 -36.8776 -0.0131 0.0712 10.4164 32.8623 0.0000 -24.3270 -3.9696 -10.6356 -1.3677 0.6673 -0.0000 0.0000 -7.3219 19.3389 -17.9109 8.7500 -0.0000 -0.0000 3.4093 -14.6383 -2.4762 -4.0016 0.0000 0.0000 -15.8996 -23.5961 -0.8747 5.3655 -0.0000 -0.0000
 -1.4727 31.9253 -5.8144 6.6571 25.2274 2.2580 -7.8550 -2.2727 -4.1424 1.9566 -15.7321 -1.4145 13.0982 11.9394 7.2337 -18.8493 -45.8669 -89.7898 -12.0419 -0.0000 -2.8603 1.5128 11.1812 -7.7557 33.1476 -0.0000 26.2537 -31.5900 23.1881 -41.1509 -87.4040 -31.6434 43.1331 114.2403 0.0000 -36.6570 -0.0149 0.0820 10.3205 32.8623 0.0000 -24.3270 -3.9746 -10.6119 -1.3489 0.6657 -0.0000 -0.0000 -7.3313 19.3725 -17.8523 8.6899 0.0000 -0.0000 3.3924 -14.6290 -2.4654 -4.0143 0.0000 -0.0000 -15.8741 -23.5284 -0.8478 5.3196 0.0000 0.0000
 -1.4765 31.9245 -5.8132 6.6742 25.1548 2.2426 -7.8767 -2.2087 -4.1327 1.9580 -15.8292 -1.3847 13.1287 11.9575 7.2314 -18.8740 -45.8201 -89.8066 -12.0856 -0.0000 -2.8890 1.4957 11.1916 -7.6620 33.1476 -0.0000 26.2537 -31.5358 23.1766 -41.1619 -87.3162 -31.4910 43.1766 114.3964 0.0000 -36.5469 -0.0087 0.0470 10.4246 32.8623 0.0000 -24.3270 -3.9748 -10.6275 -1.3307 0.6588 -0.0000 -0.0000 -7.3514 19.4591 -17.8017 8.6746 0.0000 0.0000 3.3754 -14.6461 -2.4514 -4.0282 0.0000 0.0000 -15.8491 -23.4396 -0.8314 5.3176 0.0000 -0.0000
 -1.4815 31.9243 -5.8132 6.6994 25.0932 2.2232 -7.8953 -2.1587 -4.1331 1.9390 -15.8995 -1.3322 13.1351 11.9896 7.2368 -18.8949 -45.7645 -89.8328 -12.1279 -0.0000 -2.8710 1.4999 11.2363 -7.6533 33.1476 -0.0000 26.2537 -31.4755 23.1279 -41.1699 -87.2755 -31.3388 43.2160 114.5198 0.0000 -36.5741 -0.0176 0.0947 10.5441 32.8623 0.0000 -24.3270 -3.9892 -10.6422 -1.3113 0.6600 -0.0000 -0.0000 -7.3699 19.5424 -17.8007 8.6277 0.0000 -0.0000 3.3523 -14.6427 -2.4359 -4.0435 -0.0000 -0.0000 -15.8257 -23.3846 -0.8160 5.2856 0.0000 -0.0000
 -1.4852 31.9240 -5.8132 6.7199 25.0446 2.2134 -7.9107 -2.1126 -4.1395 1.9238 -15.9690 -1.2944 13.1481 12.0060 7.2408 -18.9134 -45.7170 -89.8509 -12.1806 -0.0000 -2.8684 1.4995 11.2511 -7.6418 33.1476 -0.0000 26.2537 -31.4272 23.0890 -41.1817 -87.2487 -31.1885 43.2322 114.6186 0.0000 -36.6645 -0.0254 0.1338 10.7646 32.8623 0.0000 -24.3270 -3.9980 -10.6637 -1.3008 0.6494 0.0000 0.0000 -7.3825 19.6106 -17.7590 8.6690 0.0000 0.0000 3.3280 -14.6632 -2.4290 -4.0524 0.0000 0.0000 -15.8152 -23.3187 -0.7880 5.3311 -0.0000 0.0000
 -1.4905 31.9237 -5.8130 6.7410 25.0116 2.1925 -7.9275 -2.0887 -4.1416 1.9168 -16.0263 -1.2480 13.1613 12.0330 7.2450 -18.9461 -45.6907 -89.8747 -12.2180 -0.0000 -2.9088 1.4968 11.2296 -7.6423 33.1476 -0.0000 26.2537 -31.4099 23.0695 -41.1868 -87.1995 -31.0595 43.2518 114.7070 0.0000 -36.7493 -0.0419 0.2181 10.8707 32.8623 0.0000 -24.3270 -4.0116 -10.6642 -1.2793 0.6522 -0.0000 -0.0000 -7.3906 19.6312 -17.7437 8.6874 0.0000 -0.0000 3.3102 -14.6717 -2.4097 -4.0623 -0.0000 -0.0000 -15.8029 -23.2659 -0.7837 5.3075 0.0000 -0.0000
 -1.4964 31.9238 -5.8129 6.7675 24.9850 2.1689 -7.9482 -2.0695 -4.1478 1.9099 -16.0860 -1.2008 13.1447 12.0457 7.2573 -18.9429 -45.6688 -89.8902 -12.2467 -0.0000 -2.8842 1.5119 11.2746 -7.6886 33.1476 -0.0000 26.2537 -31.3939 23.0461 -41.1886 -87.1806 -30.9408 43.2559 114.8008 0.0000 -36.7139 -0.0480 0.2495 10.8896 32.8623 0.0000 -24.3270 -4.0270 -10.6687 -1.2534 0.6426 -0.0000 -0.0000 -7.3948 19.6595 -17.7501 8.7341 0.0000 -0.0000 3.2904 -14.6611 -2.3868 -4.0749 -0.0000 0.0000 -15.7814 -23.2484 -0.7790 5.2994 -0.0000 0.0000
 -1.5014 31.9233 -5.8128 6.7773 24.9697 2.1592 -7.9473 -2.0697 -4.1648 1.8938 -16.1187 -1.1427 13.1513 12.0791 7.2640 -18.9788 -45.6350 -89.9151 -12.2843 -0.0000 -2.9353 1.3672 11.1203 -7.0542 33.1476 -0.0000 26.2537 -31.4237 23.0462 -41.1831 -87.1197 -30.8575 43.2607 114.8953 0.0000 -36.6305 -0.0378 0.1974 10.8458 32.8623 0.0000 -24.3270 -4.0317 -10.6857 -1.2376 0.6334 0.0000 0.0000 -7.3940 19.6919 -17.7230 8.6341 -0.0000 -0.0000 3.2834 -14.6509 -2.3735 -4.0823 0.0000 0.0000 -15.7764 -23.2399 -0.7743 5.3110 -0.0000 -0.0000
 -1.5067 31.9231 -5.8130 6.8042 24.9657 2.1400 -7.9667 -2.0750 -4.1818 1.8941 -16.1577 -1.0897 13.1530 12.0942 7.2679 -18.9961 -45.6383 -89.9254 -12.2971 -0.0000 -2.9324 1.3737 11.1478 -7.0702 33.1476 -0.0000 26.2537 -31.3748 22.9741 -41.2176 -87.1702 -30.7859 43.2590 114.9796 0.0000 -36.5281 -0.0210 0.1107 10.7275 32.8623 0.0000 -24.3270 -4.0545 -10.6950 -1.2210 0.6285 -0.0000 -0.0000 -7.3892 19.7112 -17.7297 8.6641 -0.0000 -0.0000 3.2674 -14.6082 -2.3567 -4.0955 0.0000 -0.0000 -15.7744 -23.2626 -0.7665 5.3151 -0.0000 0.0000
 -1.5112 31.9228 -5.8121 6.8170 24.9684 2.1259 -7.9766 -2.0915 -4.1986 1.9013 -16.1764 -1.0341 13.1541 12.1012 7.2739 -19.0065 -45.6251 -89.9360 -12.3066 -0.0000 -2.8986 1.4096 11.2034 -7.2179 33.1476 -0.0000 26.2537 -31.3618 22.9334 -41.2347 -87.1817 -30.6931 43.2459 115.0423 0.0000 -36.4306 -0.0146 0.0782 10.6035 32.8623 0.0000 -24.3270 -4.0590 -10.7011 -1.2038 0.6186 -0.0000 -0.0000 -7.3895 19.7012 -17.7306 8.6513 -0.0000 0.0000 3.2595 -14.5982 -2.3408 -4.0947 0.0000 -0.0000 -15.7826 -23.2669 -0.7992 5.3354 0.0000 -0.0000
 -1.5164 31.9227 -5.8117 6.8279 24.9744 2.1117 -7.9806 -2.1095 -4.2144 1.9063 -16.2037 -0.9915 13.1560 12.1046 7.2681 -19.0064 -45.6206 -89.9277 -12.3178 -0.0000 -2.8087 1.5246 11.2780 -7.7497 33.1476 -0.0000 26.2537 -31.3093 22.8658 -41.2782 -87.2285 -30.5996 43.2194 115.1007 0.0000 -36.3464 -0.0118 0.0642 10.4429 32.8623 0.0000 -24.3270 -4.0640 -10.7040 -1.1834 0.6077 -0.0000 -0.0000 -7.3880 19.7064 -17.7362 8.7614 0.0000 0.0000 3.2580 -14.5596 -2.3208 -4.1057 -0.0000 -0.0000 -15.7761 -23.3136 -0.7850 5.3203 0.0000 0.0000
 -1.5218 31.9223 -5.8121 6.8491 24.9962 2.0951 -7.9903 -2.1338 -4.2346 1.9014 -16.2235 -0.9531 13.1395 12.1029 7.2746 -19.0088 -45.6510 -89.9299 -12.3040 -0.0000 -2.8015 1.5325 11.2697 -7.7952 33.1476 -0.0000 26.2537 -31.2654 22.7981 -41.3335 -87.2930 -30.5391 43.1766 115.1254 0.0000 -36.3273 -0.0087 0.0471 10.4193 32.8623 0.0000 -24.3270 -4.0816 -10.7179 -1.1670 0.5932 0.0000 -0.0000 -7.3781 19.6900 -17.7320 8.6999 0.0000 0.0000 3.2470 -14.5277 -2.3060 -4.1119 0.0000 -0.0000 -15.7766 -23.3474 -0.7870 5.3167 0.0000 0.0000
 -1.5265 31.9222 -5.8119 6.8574 25.0210 2.0847 -7.9912 -2.1787 -4.2538 1.9067 -16.2251 -0.9216 13.1224 12.1015 7.2699 -18.9926 -45.6855 -89.9180 -12.2941 -0.0000 -2.8095 1.5253 11.2740 -7.7560 33.1476 -0.0000 26.2537 -31.2143 22.7367 -41.3869 -87.3694 -30.4881 43.1399 115.1374 0.0000 -36.3261 -0.0021 0.0112 10.4292 32.8623 0.0000 -24.3270 -4.0876 -10.7219 -1.1540 0.5793 0.0000 0.0000 -7.3650 19.6957 -17.7472 8.6756 -0.0000 0.0000 3.2528 -14.4835 -2.2908 -4.1258 0.0000 -0.0000 -15.7871 -23.4010 -0.8229 5.3166 0.0000 0.0000
 -1.5319 31.9221 -5.8128 6.8658 25.0577 2.0711 -7.9885 -2.2355 -4.2721 1.9093 -16.2198 -0.8917 13.1031 12.1024 7.2620 -18.9829 -45.7257 -89.9020 -12.2721 -0.0000 -2.8416 1.5230 11.2808 -7.7398 33.1476 -0.0000 26.2537 -31.1881 22.6862 -41.4293 -87.4354 -30.4202 43.0938 115.1252 0.0000 -36.3545 0.0004 -0.0024 10.5288 32.8623 0.0000 -24.3270 -4.1041 -10.7361 -1.1405 0.5904 -0.0000 -0.0000 -7.3615 19.6893 -17.8017 8.7519 0.0000 0.0000 3.2464 -14.4818 -2.2718 -4.1173 -0.0000 -0.0000 -15.7929 -23.4272 -0.8255 5.3226 0.0000 -0.0000
 -1.5375 31.9220 -5.8127 6.8719 25.0931 2.0568 -7.9871 -2.2808 -4.2902 1.9181 -16.2260 -0.8658 13.0826 12.0948 7.2508 -18.9653 -45.7625 -89.8759 -12.2388 -0.0000 -2.8475 1.5390 11.2786 -7.8217 33.1476 -0.0000 26.2537 -31.1685 22.6366 -41.4801 -87.4744 -30.3599 43.0508 115.1122 0.0000 -36.3963 -0.0043 0.0232 10.5221 32.8623 0.0000 -24.3270 -4.1112 -10.7461 -1.1168 0.5749 -0.0000 0.0000 -7.3482 19.6421 -17.7841 8.6832 -0.0000 0.0000 3.2427 -14.4667 -2.2496 -4.1073 -0.0000 -0.0000 -15.8018 -23.4731 -0.8421 5.2787 -0.0000 -0.0000
 -1.5416 31.9219 -5.8123 6.8737 25.1294 2.0509 -7.9852 -2.3197 -4.3117 1.9394 -16.2478 -0.8416 13.0704 12.0809 7.2365 -18.9538 -45.7913 -89.8512 -12.2013 -0.0000 -2.8458 1.5577 11.2776 -7.9165 33.1476 -0.0000 26.2537 -31.1626 22.5918 -41.5272 -87.5059 -30.3035 43.0039 115.0772 0.0000 -36.4600 -0.0121 0.0645 10.5831 32.8623 0.0000 -24.3270 -4.1181 -10.7442 -1.1108 0.5812 0.0000 -0.0000 -7.3407 19.6283 -17.8220 8.7009 -0.0000 -0.0000 3.2474 -14.4542 -2.2363 -4.1055 0.0000 -0.0000 -15.8212 -23.5151 -0.8606 5.3389 0.0000 -0.0000
 -1.5461 31.9217 -5.8118 6.8776 25.1722 2.0406 -7.9853 -2.3679 -4.3324 1.9642 -16.2671 -0.8202 13.0771 12.0870 7.2181 -18.9649 -45.8314 -89.8233 -12.1692 -0.0000 -2.8902 1.5094 11.2044 -7.7228 33.1476 -0.0000 26.2537 -31.1339 22.5223 -41.5782 -87.5627 -30.2527 42.9657 115.0448 0.0000 -36.4695 -0.0117 0.0625 10.6372 32.8623 0.0000 -24.3270 -4.1225 -10.7649 -1.0912 0.5629 0.0000 0.0000 -7.3306 19.5666 -17.7815 8.7296 -0.0000 -0.0000 3.2501 -14.4591 -2.2168 -4.1020 0.0000 -0.0000 -15.8367 -23.5427 -0.8881 5.3441 -0.0000 0.0000
 -1.5506 31.9214 -5.8116 6.8768 25.2116 2.0301 -7.9796 -2.4097 -4.3482 1.9910 -16.2967 -0.8070 13.0644 12.0768 7.2031 -18.9496 -45.8600 -89.7937 -12.1373 -0.0000 -2.8730 1.5022 11.2200 -7.6760 33.1476 -0.0000 26.2537 -31.1047 22.4548 -41.6153 -87.6318 -30.1852 42.9369 115.0252 0.0000 -36.4292 -0.0065 0.0345 10.6279 32.8623 0.0000 -24.3270 -4.1193 -10.7530 -1.0756 0.5438 0.0000 0.0000 -7.3096 19.5289 -17.7624 8.6749 0.0000 0.0000 3.2583 -14.4412 -2.1966 -4.1050 -0.0000 0.0000 -15.8394 -23.6015 -0.9002 5.3077 0.0000 0.0000
 -1.5538 31.9211 -5.8114 6.8739 25.2548 2.0290 -7.9770 -2.4539 -4.3688 2.0269 -16.3232 -0.7986 13.0611 12.0710 7.1751 -18.9362 -45.8887 -89.7535 -12.1026 -0.0000 -2.9240 1.4116 11.1678 -7.2505 33.1476 -0.0000 26.2537 -31.0848 22.3976 -41.6572 -87.6691 -30.1307 42.9203 115.0194 0.0000 -36.3449 0.0021 -0.0111 10.6579 32.8623 0.0000 -24.3270 -4.1258 -10.7541 -1.0698 0.5512 -0.0000 0.0000 -7.3081 19.4854 -17.8154 8.7261 -0.0000 0.0000 3.2635 -14.4498 -2.1873 -4.0970 0.0000 0.0000 -15.8558 -23.6287 -0.8862 5.3730 0.0000 -0.0000
 -1.5561 31.9201 -5.8109 6.8697 25.2933 2.0210 -7.9756 -2.4928 -4.3808 2.0666 -16.3439 -0.7937 13.0464 12.0701 7.1557 -18.9236 -45.9130 -89.7317 -12.0602 -0.0000 -2.9313 1.3918 11.1395 -7.1679 33.1476 -0.0000 26.2537 -31.0517 22.3379 -41.6913 -87.7123 -30.0567 42.8920 115.0162 0.0000 -36.3388 0.0001 -0.0006 10.5771 32.8623 0.0000 -24.3270 -4.0916 -10.8815 -1.0463 0.4783 0.0000 0.0000 -7.2728 19.5674 -17.8671 8.7268 0.0000 -0.0000 3.2715 -14.4649 -2.1724 -4.0885 -0.0000 -0.0000 -15.8757 -23.6446 -0.9043 5.3573 0.0000 -0.0000
